<?xml version="1.0" encoding="UTF-8" standalone="no"?>
<svg
   width="1280"
   height="950"
   viewBox="0 0 338.66668 251.35416"
   version="1.1"
   id="svg8"
   inkscape:version="1.1 (c68e22c387, 2021-05-23)"
   sodipodi:docname="observability.svg"
   inkscape:export-filename="/home/rafaelldi/Documents/Схемы/metrics.png"
   inkscape:export-xdpi="96"
   inkscape:export-ydpi="96"
   xmlns:inkscape="http://www.inkscape.org/namespaces/inkscape"
   xmlns:sodipodi="http://sodipodi.sourceforge.net/DTD/sodipodi-0.dtd"
   xmlns:xlink="http://www.w3.org/1999/xlink"
   xmlns="http://www.w3.org/2000/svg"
   xmlns:svg="http://www.w3.org/2000/svg"
   xmlns:rdf="http://www.w3.org/1999/02/22-rdf-syntax-ns#"
   xmlns:cc="http://creativecommons.org/ns#"
   xmlns:dc="http://purl.org/dc/elements/1.1/">
  <defs
     id="defs2">
    <marker
       style="overflow:visible"
       id="TriangleInL"
       refX="0"
       refY="0"
       orient="auto"
       inkscape:stockid="TriangleInL"
       inkscape:isstock="true">
      <path
         transform="scale(-0.8)"
         style="fill:context-stroke;fill-rule:evenodd;stroke:context-stroke;stroke-width:1pt"
         d="M 5.77,0 -2.88,5 V -5 Z"
         id="path5305" />
    </marker>
    <marker
       style="overflow:visible"
       id="Arrow2Lstart"
       refX="0"
       refY="0"
       orient="auto"
       inkscape:stockid="Arrow2Lstart"
       inkscape:isstock="true">
      <path
         transform="matrix(1.1,0,0,1.1,1.1,0)"
         d="M 8.7185878,4.0337352 -2.2072895,0.01601326 8.7185884,-4.0017078 c -1.7454984,2.3720609 -1.7354408,5.6174519 -6e-7,8.035443 z"
         style="fill:context-stroke;fill-rule:evenodd;stroke-width:0.625;stroke-linejoin:round"
         id="path5190" />
    </marker>
    <inkscape:path-effect
       effect="bspline"
       id="path-effect87296"
       is_visible="true"
       lpeversion="1"
       weight="33.333333"
       steps="2"
       helper_size="0"
       apply_no_weight="true"
       apply_with_weight="true"
       only_selected="false" />
    <inkscape:path-effect
       effect="bspline"
       id="path-effect80704"
       is_visible="true"
       lpeversion="1"
       weight="33.333333"
       steps="2"
       helper_size="0"
       apply_no_weight="true"
       apply_with_weight="true"
       only_selected="false" />
    <inkscape:path-effect
       effect="bspline"
       id="path-effect38237"
       is_visible="true"
       lpeversion="1"
       weight="33.333333"
       steps="2"
       helper_size="0"
       apply_no_weight="true"
       apply_with_weight="true"
       only_selected="false" />
    <marker
       style="overflow:visible"
       id="TriangleOutL"
       refX="0"
       refY="0"
       orient="auto"
       inkscape:stockid="TriangleOutL"
       inkscape:isstock="true">
      <path
         transform="scale(0.8)"
         style="fill:context-stroke;fill-rule:evenodd;stroke:context-stroke;stroke-width:1pt"
         d="M 5.77,0 -2.88,5 V -5 Z"
         id="path26672" />
    </marker>
    <marker
       style="overflow:visible"
       id="marker26896"
       refX="0"
       refY="0"
       orient="auto"
       inkscape:stockid="Arrow2Lend"
       inkscape:isstock="true">
      <path
         transform="matrix(-1.1,0,0,-1.1,-1.1,0)"
         d="M 8.7185878,4.0337352 -2.2072895,0.01601326 8.7185884,-4.0017078 c -1.7454984,2.3720609 -1.7354408,5.6174519 -6e-7,8.035443 z"
         style="fill:context-stroke;fill-rule:evenodd;stroke-width:0.625;stroke-linejoin:round"
         id="path26894" />
    </marker>
    <marker
       style="overflow:visible"
       id="Arrow2Lend"
       refX="0"
       refY="0"
       orient="auto"
       inkscape:stockid="Arrow2Lend"
       inkscape:isstock="true">
      <path
         transform="matrix(-1.1,0,0,-1.1,-1.1,0)"
         d="M 8.7185878,4.0337352 -2.2072895,0.01601326 8.7185884,-4.0017078 c -1.7454984,2.3720609 -1.7354408,5.6174519 -6e-7,8.035443 z"
         style="fill:context-stroke;fill-rule:evenodd;stroke-width:0.625;stroke-linejoin:round"
         id="path26551" />
    </marker>
    <marker
       style="overflow:visible"
       id="Arrow1Lend"
       refX="0"
       refY="0"
       orient="auto"
       inkscape:stockid="Arrow1Lend"
       inkscape:isstock="true">
      <path
         transform="matrix(-0.8,0,0,-0.8,-10,0)"
         style="fill:context-stroke;fill-rule:evenodd;stroke:context-stroke;stroke-width:1pt"
         d="M 0,0 5,-5 -12.5,0 5,5 Z"
         id="path26533" />
    </marker>
    <marker
       style="overflow:visible"
       id="Arrow1Lstart"
       refX="0"
       refY="0"
       orient="auto"
       inkscape:stockid="Arrow1Lstart"
       inkscape:isstock="true">
      <path
         transform="matrix(0.8,0,0,0.8,10,0)"
         style="fill:context-stroke;fill-rule:evenodd;stroke:context-stroke;stroke-width:1pt"
         d="M 0,0 5,-5 -12.5,0 5,5 Z"
         id="path26530" />
    </marker>
    <defs
       id="defs5">
      <rect
         id="SVGID_1_"
         x="-849.70001"
         y="-1412.2"
         width="4355.2002"
         height="5636.2002" />
    </defs>
    <clipPath
       id="SVGID_2_">
      <use
         xlink:href="#SVGID_1_"
         style="overflow:visible"
         id="use7"
         x="0"
         y="0"
         width="100%"
         height="100%" />
    </clipPath>
    <defs
       id="defs33">
      <path
         inkscape:connector-curvature="0"
         d="m 1229.6,328.6 c 0,0 -0.7,2.9 -1.6,7.8 -8.3,2.4 -16.6,4.7 -24.9,7.4 -11.5,3.5 -22.8,7.7 -34.3,11.8 -11.3,4.4 -22.8,8.8 -34,13.8 -22.6,9.7 -45,20.6 -66.9,32.9 -21.2,11.9 -42.1,25 -62.4,39.2 -2.9,-1.4 -5.2,-2.4 -5.2,-2.4 -207.3,-79.2 -391.4,16.1 -391.4,16.1 -16.8,220.5 82.8,359.5 102.5,384.7 -4.9,13.6 -9.5,27.4 -13.7,41.3 -15.3,50 -26.8,101.3 -33.9,154.3 -1,7.6 -1.9,15.3 -2.8,23 -191.5,94.6 -248.3,288.5 -248.3,288.5 159.9,183.9 346.3,195.3 346.3,195.3 0.2,-0.1 0.3,-0.3 0.5,-0.4 23.7,42.3 51.1,82.6 82,120.1 12.9,15.7 26.5,30.9 40.6,45.6 -58.3,166.7 8.2,305.4 8.2,305.4 178,6.7 294.9,-77.9 319.5,-97.4 17.7,6 35.7,11.3 53.8,16 54.7,14.1 110.7,22.4 166.7,24.8 14,0.6 28,0.9 41.9,0.8 h 6.8 l 4.4,-0.1 8.8,-0.3 8.7,-0.4 0.2,0.3 c 83.8,119.6 231.3,136.5 231.3,136.5 104.9,-110.6 110.9,-220.3 110.9,-244 v 0 c 0,0 0,-0.8 0,-1.6 0,-2 -0.1,-3.3 -0.1,-3.3 0,0 0,0 0,0 -0.1,-1.7 -0.1,-3.3 -0.3,-5.1 22,-15.4 43,-32 62.9,-49.8 42,-38 78.7,-81.2 109.1,-127.9 2.9,-4.4 5.7,-8.8 8.4,-13.3 118.7,6.8 202.4,-73.5 202.4,-73.5 -19.7,-123.7 -90.2,-184 -104.9,-195.4 v 0 c 0,0 -0.6,-0.5 -1.5,-1.1 -0.8,-0.6 -1.4,-1 -1.4,-1 0,0 0,0 0,0 -0.7,-0.5 -1.6,-1.1 -2.6,-1.7 0.7,-7.5 1.4,-14.9 1.8,-22.3 0.9,-13.3 1.2,-26.7 1.3,-39.9 l -0.1,-9.9 -0.1,-5 v -2.5 c 0,-3.4 -0.1,-2.1 -0.1,-3.4 l -0.4,-8.3 -0.6,-11.2 c -0.2,-3.9 -0.5,-7.2 -0.8,-10.7 -0.3,-3.4 -0.6,-6.9 -1,-10.3 l -1.2,-10.3 -1.4,-10.2 c -2,-13.6 -4.6,-27.1 -7.7,-40.4 -12.4,-53.3 -33.2,-103.9 -60.7,-149.4 -27.5,-45.5 -61.7,-85.8 -100.2,-119.7 -38.5,-34 -81.7,-61.3 -127,-81.7 -45.3,-20.4 -92.9,-33.5 -140.3,-39.5 -23.7,-3.1 -47.3,-4.3 -70.7,-4 l -8.7,0.2 -2.2,0.1 c -0.6,0 -3.3,0.1 -3,0.1 l -3.6,0.2 -8.7,0.6 c -3.3,0.2 -6.7,0.5 -9.6,0.8 -12,1.2 -23.9,2.8 -35.7,5 -47,8.8 -91.4,25.8 -130.5,49.2 -39.1,23.4 -73.1,52.7 -100.8,85.9 -27.6,33.1 -49.1,69.8 -63.9,107.8 -14.8,38 -23.1,77.2 -25.4,115.3 -0.6,9.5 -0.8,19 -0.6,28.4 0,2.3 0.1,4.7 0.2,7 l 0.3,7.6 c 0.3,4.6 0.7,9.1 1.1,13.6 1.9,19.3 5.4,37.8 10.6,55.7 10.3,35.7 26.9,68 47.3,95.4 20.4,27.5 44.8,50.2 70.7,67.9 25.9,17.7 53.6,30.4 81,38.5 27.5,8.1 54.8,11.6 80.5,11.5 3.2,0 6.4,-0.1 9.6,-0.2 1.7,0 3.4,-0.2 5.1,-0.2 1.7,-0.1 3.4,-0.2 5.1,-0.3 2.7,-0.3 5.5,-0.5 8.2,-0.8 0.6,0 1.5,-0.2 2.3,-0.3 l 2.5,-0.3 c 1.7,-0.2 3.3,-0.5 5,-0.7 3.4,-0.4 6.3,-1.1 9.3,-1.6 3,-0.6 6,-1.2 9,-2 5.9,-1.3 11.6,-3.1 17.3,-4.8 11.2,-3.7 21.7,-8.2 31.5,-13.2 9.8,-5 18.8,-10.7 27.2,-16.6 2.4,-1.7 4.7,-3.5 7,-5.3 9,-7 10.4,-20.2 3.2,-29 -6.3,-7.7 -17.1,-9.7 -25.7,-4.9 -2.1,1.2 -4.3,2.3 -6.5,3.4 -7.5,3.6 -15.3,7 -23.6,9.7 -8.3,2.6 -16.9,4.8 -25.9,6.4 -4.5,0.6 -9,1.3 -13.6,1.7 -2.3,0.3 -4.6,0.4 -7,0.4 -2.3,0.1 -4.8,0.3 -6.9,0.2 -2.2,0 -4.4,-0.1 -6.7,-0.1 -2.8,-0.1 -5.6,-0.3 -8.4,-0.4 0,0 -1.4,0 -0.3,-0.1 l -0.9,-0.1 -1.9,-0.2 c -1.3,-0.1 -2.5,-0.2 -3.8,-0.4 -2.5,-0.3 -5,-0.6 -7.5,-1 -20.1,-2.8 -40.5,-8.7 -60.1,-17.6 -19.7,-8.9 -38.5,-21.1 -55.5,-36.4 -17,-15.2 -31.8,-33.6 -43.4,-54.4 -11.6,-20.7 -19.7,-43.8 -23.5,-68 -1.9,-12.1 -2.7,-24.6 -2.4,-36.8 0.2,-3.4 0.3,-6.7 0.5,-10.1 0,0.9 0.1,-0.5 0.1,-0.6 l 0.1,-1.2 0.2,-2.5 c 0.1,-1.7 0.3,-3.3 0.5,-5 0.7,-6.6 1.7,-13.3 2.9,-19.8 9.3,-52.7 35.7,-104.1 76.5,-143.2 10.2,-9.7 21.2,-18.8 32.9,-26.8 11.7,-8 24.2,-15.2 37.2,-21.2 13,-6 26.6,-10.9 40.5,-14.7 13.9,-3.7 28.2,-6.2 42.7,-7.5 7.2,-0.6 14.5,-0.9 21.8,-0.9 1.9,0 3.4,0.1 4.9,0.1 l 5.9,0.2 3.7,0.1 c 1.5,0 0,0 0.7,0.1 l 1.5,0.1 5.9,0.4 c 15.7,1.3 31.4,3.5 46.8,7 30.9,6.9 60.9,18.2 88.9,33.7 56,31 103.7,79.5 133,138 14.8,29.1 25,60.5 30.2,92.9 1.2,8.1 2.2,16.3 2.9,24.5 l 0.5,6.2 0.3,6.2 c 0.1,2.1 0.1,4.1 0.2,6.2 0,2 0.1,4.3 0.1,5.8 v 5.3 l -0.1,6 c -0.2,4 -0.5,10.5 -0.7,14.5 -0.7,8.9 -1.4,17.9 -2.6,26.8 -1.1,8.8 -2.6,17.6 -4.2,26.4 -1.8,8.7 -3.6,17.4 -5.9,26 -4.3,17.3 -9.9,34.2 -16.4,50.8 -13.1,33.2 -30.6,64.7 -51.7,93.8 -42.3,58.1 -100,105.6 -165.6,135.4 -32.8,14.8 -67.4,25.7 -103,31.6 -17.8,3 -35.8,4.8 -53.8,5.4 l -3.3,0.1 h -2.9 l -5.8,0.1 h -8.9 -4.4 c 2.5,0 -0.4,0 -0.3,-0.1 l -1.8,-0.1 c -9.7,-0.2 -19.3,-0.7 -28.9,-1.4 -38.5,-2.9 -76.6,-9.7 -113.5,-20.5 -36.9,-10.7 -72.7,-25 -106.6,-43 -67.7,-36.2 -128.2,-85.8 -175.6,-145.6 -23.8,-29.8 -44.6,-61.8 -61.8,-95.5 -17.2,-33.7 -30.7,-69 -40.7,-105.1 -9.9,-36.1 -16.1,-73.1 -18.5,-110.3 l -0.4,-7 -0.1,-1.7 v -1.5 l -0.1,-3.1 -0.2,-6.1 -0.1,-1.5 v -2.1 -4.3 l -0.1,-8.7 v -1.7 c 0,0.3 0,0.3 0,-0.6 v -3.4 c 0,-4.5 0.2,-9.1 0.3,-13.6 0.7,-18.4 2.2,-37.3 4.6,-56.2 2.4,-18.9 5.5,-37.9 9.4,-56.8 3.9,-18.8 8.5,-37.5 13.7,-55.8 10.5,-36.7 23.6,-72.3 39.1,-105.9 31.1,-67.3 71.9,-126.6 120.9,-174.4 12.2,-12 24.9,-23.3 38.1,-33.9 13.2,-10.6 26.9,-20.4 41,-29.6 14,-9.3 28.5,-17.7 43.4,-25.5 7.4,-4 15,-7.5 22.6,-11.2 3.8,-1.7 7.7,-3.4 11.5,-5.1 3.8,-1.7 7.7,-3.4 11.6,-4.9 15.5,-6.6 31.5,-12.1 47.5,-17.3 4.1,-1.2 8.1,-2.5 12.1,-3.7 4,-1.3 8.2,-2.2 12.2,-3.4 8.1,-2.3 16.4,-4.2 24.6,-6.3 4.1,-1.1 8.3,-1.8 12.4,-2.7 4.2,-0.9 8.3,-1.8 12.5,-2.6 4.2,-0.8 8.4,-1.5 12.5,-2.3 l 6.3,-1.1 6.3,-1 c 4.2,-0.6 8.4,-1.3 12.6,-1.9 4.7,-0.8 9.5,-1.2 14.2,-1.9 3.9,-0.5 10.2,-1.2 14.1,-1.7 3,-0.3 5.9,-0.6 8.9,-0.9 l 5.9,-0.6 3,-0.3 3.5,-0.2 c 4.8,-0.3 9.5,-0.6 14.3,-0.9 l 7.1,-0.5 c 0,0 2.6,-0.1 0.3,-0.1 l 1.5,-0.1 3,-0.1 c 4.1,-0.2 8.1,-0.4 12.2,-0.6 16.2,-0.5 32.3,-0.5 48.2,0 31.9,1.3 63.2,4.8 93.6,10.4 60.9,11.3 118.2,30.9 170,56.5 51.9,25.4 98.4,56.6 138.8,90.5 2.5,2.1 5,4.3 7.5,6.4 2.5,2.2 4.9,4.3 7.3,6.5 4.9,4.3 9.6,8.8 14.3,13.1 4.7,4.4 9.2,8.9 13.8,13.3 4.4,4.5 8.9,8.9 13.2,13.5 17.1,18.1 33,36.5 47.3,55 28.7,36.9 51.6,74.1 69.9,109.3 1.2,2.2 2.3,4.4 3.4,6.6 1.1,2.2 2.2,4.4 3.2,6.6 2.1,4.3 4.3,8.6 6.2,12.9 2,4.3 4,8.5 5.9,12.7 1.8,4.2 3.6,8.4 5.4,12.4 6.8,16.5 13,32.1 18.1,47 8.4,23.9 14.5,45.5 19.3,64.2 1.9,7.5 9,12.5 16.7,11.8 8,-0.7 14.1,-7.3 14.3,-15.3 0.4,-20.1 -0.1,-43.8 -2.4,-70.8 -3,-33.4 -8.7,-72.1 -20,-114.6 -11.1,-42.5 -27.6,-89 -51.6,-137.3 -24.1,-48.2 -55.5,-98.4 -96.3,-146.9 -15.9,-19 -33.3,-37.8 -52.1,-56.1 28,-111.4 -34.1,-208 -34.1,-208 -107.2,-6.7 -175.4,33.3 -200.7,51.6 -4.2,-1.8 -8.5,-3.6 -12.8,-5.4 -18.3,-7.4 -37,-14.3 -56.3,-20.4 -19.3,-6.1 -39,-11.7 -59.1,-16.4 -20.2,-4.7 -40.7,-8.7 -61.6,-11.9 -3.7,-0.5 -7.3,-1 -11,-1.6 -46.6,-149.4 -180.9,-211.9 -180.9,-211.9 -149.8,94.5 -178.3,227.4 -178.3,227.4"
         id="SVGID_5_" />
    </defs>
    <clipPath
       id="SVGID_6_">
      <use
         height="100%"
         width="100%"
         y="0"
         x="0"
         id="use35"
         style="overflow:visible"
         xlink:href="#SVGID_5_" />
    </clipPath>
    <linearGradient
       gradientTransform="matrix(0,-255.7742,-255.7742,0,2099115.5,-207133.55)"
       y2="8201.71"
       x2="-812.64868"
       y1="8201.71"
       x1="-819.76501"
       gradientUnits="userSpaceOnUse"
       id="SVGID_7_">
      <stop
         id="stop38"
         style="stop-color:#FFF200"
         offset="0" />
      <stop
         id="stop40"
         style="stop-color:#F15A29"
         offset="1" />
    </linearGradient>
    <defs
       id="defs11">
      <rect
         height="5636.2002"
         width="4355.2002"
         y="-1412.2"
         x="-849.70001"
         id="SVGID_3_" />
    </defs>
    <clipPath
       id="SVGID_4_">
      <use
         height="100%"
         width="100%"
         y="0"
         x="0"
         id="use13"
         style="overflow:visible"
         xlink:href="#SVGID_3_" />
    </clipPath>
    <rect
       id="rect861"
       x="-849.70001"
       y="-1412.2"
       width="4355.2002"
       height="5636.2002" />
    <path
       inkscape:connector-curvature="0"
       d="m 1229.6,328.6 c 0,0 -0.7,2.9 -1.6,7.8 -8.3,2.4 -16.6,4.7 -24.9,7.4 -11.5,3.5 -22.8,7.7 -34.3,11.8 -11.3,4.4 -22.8,8.8 -34,13.8 -22.6,9.7 -45,20.6 -66.9,32.9 -21.2,11.9 -42.1,25 -62.4,39.2 -2.9,-1.4 -5.2,-2.4 -5.2,-2.4 -207.3,-79.2 -391.4,16.1 -391.4,16.1 -16.8,220.5 82.8,359.5 102.5,384.7 -4.9,13.6 -9.5,27.4 -13.7,41.3 -15.3,50 -26.8,101.3 -33.9,154.3 -1,7.6 -1.9,15.3 -2.8,23 -191.5,94.6 -248.3,288.5 -248.3,288.5 159.9,183.9 346.3,195.3 346.3,195.3 0.2,-0.1 0.3,-0.3 0.5,-0.4 23.7,42.3 51.1,82.6 82,120.1 12.9,15.7 26.5,30.9 40.6,45.6 -58.3,166.7 8.2,305.4 8.2,305.4 178,6.7 294.9,-77.9 319.5,-97.4 17.7,6 35.7,11.3 53.8,16 54.7,14.1 110.7,22.4 166.7,24.8 14,0.6 28,0.9 41.9,0.8 h 6.8 l 4.4,-0.1 8.8,-0.3 8.7,-0.4 0.2,0.3 c 83.8,119.6 231.3,136.5 231.3,136.5 104.9,-110.6 110.9,-220.3 110.9,-244 v 0 c 0,0 0,-0.8 0,-1.6 0,-2 -0.1,-3.3 -0.1,-3.3 0,0 0,0 0,0 -0.1,-1.7 -0.1,-3.3 -0.3,-5.1 22,-15.4 43,-32 62.9,-49.8 42,-38 78.7,-81.2 109.1,-127.9 2.9,-4.4 5.7,-8.8 8.4,-13.3 118.7,6.8 202.4,-73.5 202.4,-73.5 -19.7,-123.7 -90.2,-184 -104.9,-195.4 v 0 c 0,0 -0.6,-0.5 -1.5,-1.1 -0.8,-0.6 -1.4,-1 -1.4,-1 0,0 0,0 0,0 -0.7,-0.5 -1.6,-1.1 -2.6,-1.7 0.7,-7.5 1.4,-14.9 1.8,-22.3 0.9,-13.3 1.2,-26.7 1.3,-39.9 l -0.1,-9.9 -0.1,-5 v -2.5 c 0,-3.4 -0.1,-2.1 -0.1,-3.4 l -0.4,-8.3 -0.6,-11.2 c -0.2,-3.9 -0.5,-7.2 -0.8,-10.7 -0.3,-3.4 -0.6,-6.9 -1,-10.3 l -1.2,-10.3 -1.4,-10.2 c -2,-13.6 -4.6,-27.1 -7.7,-40.4 -12.4,-53.3 -33.2,-103.9 -60.7,-149.4 -27.5,-45.5 -61.7,-85.8 -100.2,-119.7 -38.5,-34 -81.7,-61.3 -127,-81.7 -45.3,-20.4 -92.9,-33.5 -140.3,-39.5 -23.7,-3.1 -47.3,-4.3 -70.7,-4 l -8.7,0.2 -2.2,0.1 c -0.6,0 -3.3,0.1 -3,0.1 l -3.6,0.2 -8.7,0.6 c -3.3,0.2 -6.7,0.5 -9.6,0.8 -12,1.2 -23.9,2.8 -35.7,5 -47,8.8 -91.4,25.8 -130.5,49.2 -39.1,23.4 -73.1,52.7 -100.8,85.9 -27.6,33.1 -49.1,69.8 -63.9,107.8 -14.8,38 -23.1,77.2 -25.4,115.3 -0.6,9.5 -0.8,19 -0.6,28.4 0,2.3 0.1,4.7 0.2,7 l 0.3,7.6 c 0.3,4.6 0.7,9.1 1.1,13.6 1.9,19.3 5.4,37.8 10.6,55.7 10.3,35.7 26.9,68 47.3,95.4 20.4,27.5 44.8,50.2 70.7,67.9 25.9,17.7 53.6,30.4 81,38.5 27.5,8.1 54.8,11.6 80.5,11.5 3.2,0 6.4,-0.1 9.6,-0.2 1.7,0 3.4,-0.2 5.1,-0.2 1.7,-0.1 3.4,-0.2 5.1,-0.3 2.7,-0.3 5.5,-0.5 8.2,-0.8 0.6,0 1.5,-0.2 2.3,-0.3 l 2.5,-0.3 c 1.7,-0.2 3.3,-0.5 5,-0.7 3.4,-0.4 6.3,-1.1 9.3,-1.6 3,-0.6 6,-1.2 9,-2 5.9,-1.3 11.6,-3.1 17.3,-4.8 11.2,-3.7 21.7,-8.2 31.5,-13.2 9.8,-5 18.8,-10.7 27.2,-16.6 2.4,-1.7 4.7,-3.5 7,-5.3 9,-7 10.4,-20.2 3.2,-29 -6.3,-7.7 -17.1,-9.7 -25.7,-4.9 -2.1,1.2 -4.3,2.3 -6.5,3.4 -7.5,3.6 -15.3,7 -23.6,9.7 -8.3,2.6 -16.9,4.8 -25.9,6.4 -4.5,0.6 -9,1.3 -13.6,1.7 -2.3,0.3 -4.6,0.4 -7,0.4 -2.3,0.1 -4.8,0.3 -6.9,0.2 -2.2,0 -4.4,-0.1 -6.7,-0.1 -2.8,-0.1 -5.6,-0.3 -8.4,-0.4 0,0 -1.4,0 -0.3,-0.1 l -0.9,-0.1 -1.9,-0.2 c -1.3,-0.1 -2.5,-0.2 -3.8,-0.4 -2.5,-0.3 -5,-0.6 -7.5,-1 -20.1,-2.8 -40.5,-8.7 -60.1,-17.6 -19.7,-8.9 -38.5,-21.1 -55.5,-36.4 -17,-15.2 -31.8,-33.6 -43.4,-54.4 -11.6,-20.7 -19.7,-43.8 -23.5,-68 -1.9,-12.1 -2.7,-24.6 -2.4,-36.8 0.2,-3.4 0.3,-6.7 0.5,-10.1 0,0.9 0.1,-0.5 0.1,-0.6 l 0.1,-1.2 0.2,-2.5 c 0.1,-1.7 0.3,-3.3 0.5,-5 0.7,-6.6 1.7,-13.3 2.9,-19.8 9.3,-52.7 35.7,-104.1 76.5,-143.2 10.2,-9.7 21.2,-18.8 32.9,-26.8 11.7,-8 24.2,-15.2 37.2,-21.2 13,-6 26.6,-10.9 40.5,-14.7 13.9,-3.7 28.2,-6.2 42.7,-7.5 7.2,-0.6 14.5,-0.9 21.8,-0.9 1.9,0 3.4,0.1 4.9,0.1 l 5.9,0.2 3.7,0.1 c 1.5,0 0,0 0.7,0.1 l 1.5,0.1 5.9,0.4 c 15.7,1.3 31.4,3.5 46.8,7 30.9,6.9 60.9,18.2 88.9,33.7 56,31 103.7,79.5 133,138 14.8,29.1 25,60.5 30.2,92.9 1.2,8.1 2.2,16.3 2.9,24.5 l 0.5,6.2 0.3,6.2 c 0.1,2.1 0.1,4.1 0.2,6.2 0,2 0.1,4.3 0.1,5.8 v 5.3 l -0.1,6 c -0.2,4 -0.5,10.5 -0.7,14.5 -0.7,8.9 -1.4,17.9 -2.6,26.8 -1.1,8.8 -2.6,17.6 -4.2,26.4 -1.8,8.7 -3.6,17.4 -5.9,26 -4.3,17.3 -9.9,34.2 -16.4,50.8 -13.1,33.2 -30.6,64.7 -51.7,93.8 -42.3,58.1 -100,105.6 -165.6,135.4 -32.8,14.8 -67.4,25.7 -103,31.6 -17.8,3 -35.8,4.8 -53.8,5.4 l -3.3,0.1 h -2.9 l -5.8,0.1 h -8.9 -4.4 c 2.5,0 -0.4,0 -0.3,-0.1 l -1.8,-0.1 c -9.7,-0.2 -19.3,-0.7 -28.9,-1.4 -38.5,-2.9 -76.6,-9.7 -113.5,-20.5 -36.9,-10.7 -72.7,-25 -106.6,-43 -67.7,-36.2 -128.2,-85.8 -175.6,-145.6 -23.8,-29.8 -44.6,-61.8 -61.8,-95.5 -17.2,-33.7 -30.7,-69 -40.7,-105.1 -9.9,-36.1 -16.1,-73.1 -18.5,-110.3 l -0.4,-7 -0.1,-1.7 v -1.5 l -0.1,-3.1 -0.2,-6.1 -0.1,-1.5 v -2.1 -4.3 l -0.1,-8.7 v -1.7 c 0,0.3 0,0.3 0,-0.6 v -3.4 c 0,-4.5 0.2,-9.1 0.3,-13.6 0.7,-18.4 2.2,-37.3 4.6,-56.2 2.4,-18.9 5.5,-37.9 9.4,-56.8 3.9,-18.8 8.5,-37.5 13.7,-55.8 10.5,-36.7 23.6,-72.3 39.1,-105.9 31.1,-67.3 71.9,-126.6 120.9,-174.4 12.2,-12 24.9,-23.3 38.1,-33.9 13.2,-10.6 26.9,-20.4 41,-29.6 14,-9.3 28.5,-17.7 43.4,-25.5 7.4,-4 15,-7.5 22.6,-11.2 3.8,-1.7 7.7,-3.4 11.5,-5.1 3.8,-1.7 7.7,-3.4 11.6,-4.9 15.5,-6.6 31.5,-12.1 47.5,-17.3 4.1,-1.2 8.1,-2.5 12.1,-3.7 4,-1.3 8.2,-2.2 12.2,-3.4 8.1,-2.3 16.4,-4.2 24.6,-6.3 4.1,-1.1 8.3,-1.8 12.4,-2.7 4.2,-0.9 8.3,-1.8 12.5,-2.6 4.2,-0.8 8.4,-1.5 12.5,-2.3 l 6.3,-1.1 6.3,-1 c 4.2,-0.6 8.4,-1.3 12.6,-1.9 4.7,-0.8 9.5,-1.2 14.2,-1.9 3.9,-0.5 10.2,-1.2 14.1,-1.7 3,-0.3 5.9,-0.6 8.9,-0.9 l 5.9,-0.6 3,-0.3 3.5,-0.2 c 4.8,-0.3 9.5,-0.6 14.3,-0.9 l 7.1,-0.5 c 0,0 2.6,-0.1 0.3,-0.1 l 1.5,-0.1 3,-0.1 c 4.1,-0.2 8.1,-0.4 12.2,-0.6 16.2,-0.5 32.3,-0.5 48.2,0 31.9,1.3 63.2,4.8 93.6,10.4 60.9,11.3 118.2,30.9 170,56.5 51.9,25.4 98.4,56.6 138.8,90.5 2.5,2.1 5,4.3 7.5,6.4 2.5,2.2 4.9,4.3 7.3,6.5 4.9,4.3 9.6,8.8 14.3,13.1 4.7,4.4 9.2,8.9 13.8,13.3 4.4,4.5 8.9,8.9 13.2,13.5 17.1,18.1 33,36.5 47.3,55 28.7,36.9 51.6,74.1 69.9,109.3 1.2,2.2 2.3,4.4 3.4,6.6 1.1,2.2 2.2,4.4 3.2,6.6 2.1,4.3 4.3,8.6 6.2,12.9 2,4.3 4,8.5 5.9,12.7 1.8,4.2 3.6,8.4 5.4,12.4 6.8,16.5 13,32.1 18.1,47 8.4,23.9 14.5,45.5 19.3,64.2 1.9,7.5 9,12.5 16.7,11.8 8,-0.7 14.1,-7.3 14.3,-15.3 0.4,-20.1 -0.1,-43.8 -2.4,-70.8 -3,-33.4 -8.7,-72.1 -20,-114.6 -11.1,-42.5 -27.6,-89 -51.6,-137.3 -24.1,-48.2 -55.5,-98.4 -96.3,-146.9 -15.9,-19 -33.3,-37.8 -52.1,-56.1 28,-111.4 -34.1,-208 -34.1,-208 -107.2,-6.7 -175.4,33.3 -200.7,51.6 -4.2,-1.8 -8.5,-3.6 -12.8,-5.4 -18.3,-7.4 -37,-14.3 -56.3,-20.4 -19.3,-6.1 -39,-11.7 -59.1,-16.4 -20.2,-4.7 -40.7,-8.7 -61.6,-11.9 -3.7,-0.5 -7.3,-1 -11,-1.6 -46.6,-149.4 -180.9,-211.9 -180.9,-211.9 -149.8,94.5 -178.3,227.4 -178.3,227.4"
       id="path863" />
    <rect
       height="5636.2002"
       width="4355.2002"
       y="-1412.2"
       x="-849.70001"
       id="rect865" />
    <marker
       style="overflow:visible"
       id="TriangleOutL-3"
       refX="0"
       refY="0"
       orient="auto"
       inkscape:stockid="TriangleOutL"
       inkscape:isstock="true">
      <path
         transform="scale(0.8)"
         style="fill:context-stroke;fill-rule:evenodd;stroke:context-stroke;stroke-width:1pt"
         d="M 5.77,0 -2.88,5 V -5 Z"
         id="path26672-6" />
    </marker>
    <marker
       style="overflow:visible"
       id="TriangleOutL-32"
       refX="0"
       refY="0"
       orient="auto"
       inkscape:stockid="TriangleOutL"
       inkscape:isstock="true">
      <path
         transform="scale(0.8)"
         style="fill:context-stroke;fill-rule:evenodd;stroke:context-stroke;stroke-width:1pt"
         d="M 5.77,0 -2.88,5 V -5 Z"
         id="path26672-0" />
    </marker>
    <linearGradient
       id="paint0_linear_17931_893"
       x1="11.6469"
       y1="66.877197"
       x2="1.23198"
       y2="-0.80250102"
       gradientUnits="userSpaceOnUse">
      <stop
         stop-color="#FAED1E"
         id="stop3744" />
      <stop
         offset="1"
         stop-color="#F15B2B"
         id="stop3746" />
    </linearGradient>
    <linearGradient
       id="paint1_linear_17931_893"
       x1="39.9916"
       y1="62.5154"
       x2="29.576799"
       y2="-5.1638999"
       gradientUnits="userSpaceOnUse">
      <stop
         stop-color="#FAED1E"
         id="stop3749" />
      <stop
         offset="1"
         stop-color="#F15B2B"
         id="stop3751" />
    </linearGradient>
    <linearGradient
       id="paint2_linear_17931_893"
       x1="25.5063"
       y1="64.744499"
       x2="15.0913"
       y2="-2.9351599"
       gradientUnits="userSpaceOnUse">
      <stop
         stop-color="#FAED1E"
         id="stop3754" />
      <stop
         offset="1"
         stop-color="#F15B2B"
         id="stop3756" />
    </linearGradient>
    <linearGradient
       id="paint3_linear_17931_893"
       x1="18.5788"
       y1="65.810501"
       x2="8.1638002"
       y2="-1.86922"
       gradientUnits="userSpaceOnUse">
      <stop
         stop-color="#FAED1E"
         id="stop3759" />
      <stop
         offset="1"
         stop-color="#F15B2B"
         id="stop3761" />
    </linearGradient>
    <linearGradient
       id="paint4_linear_17931_893"
       x1="11.6394"
       y1="66.878403"
       x2="1.22448"
       y2="-0.80128002"
       gradientUnits="userSpaceOnUse">
      <stop
         stop-color="#FAED1E"
         id="stop3764" />
      <stop
         offset="1"
         stop-color="#F15B2B"
         id="stop3766" />
    </linearGradient>
    <linearGradient
       id="paint5_linear_17931_893"
       x1="39.998199"
       y1="62.514301"
       x2="29.5833"
       y2="-5.1652799"
       gradientUnits="userSpaceOnUse">
      <stop
         stop-color="#FAED1E"
         id="stop3769" />
      <stop
         offset="1"
         stop-color="#F15B2B"
         id="stop3771" />
    </linearGradient>
    <linearGradient
       id="paint6_linear_17931_893"
       x1="25.506001"
       y1="64.744301"
       x2="15.091"
       y2="-2.93537"
       gradientUnits="userSpaceOnUse">
      <stop
         stop-color="#FAED1E"
         id="stop3774" />
      <stop
         offset="1"
         stop-color="#F15B2B"
         id="stop3776" />
    </linearGradient>
    <linearGradient
       id="paint7_linear_17931_893"
       x1="18.5788"
       y1="65.810303"
       x2="8.1640701"
       y2="-1.86867"
       gradientUnits="userSpaceOnUse">
      <stop
         stop-color="#FAED1E"
         id="stop3779" />
      <stop
         offset="1"
         stop-color="#F15B2B"
         id="stop3781" />
    </linearGradient>
    <linearGradient
       id="paint8_linear_17931_893"
       x1="10.1623"
       y1="65.759697"
       x2="0.28469601"
       y2="1.57166"
       gradientUnits="userSpaceOnUse">
      <stop
         stop-color="#FAED1E"
         id="stop3784" />
      <stop
         offset="1"
         stop-color="#F15B2B"
         id="stop3786" />
    </linearGradient>
    <linearGradient
       id="paint9_linear_17931_893"
       x1="13.0129"
       y1="67.143097"
       x2="2.40785"
       y2="-1.7724299"
       gradientUnits="userSpaceOnUse">
      <stop
         stop-color="#FAED1E"
         id="stop3789" />
      <stop
         offset="1"
         stop-color="#F15B2B"
         id="stop3791" />
    </linearGradient>
    <linearGradient
       id="paint10_linear_17931_893"
       x1="17.633801"
       y1="68.033096"
       x2="6.38943"
       y2="-5.0366998"
       gradientUnits="userSpaceOnUse">
      <stop
         stop-color="#FAED1E"
         id="stop3794" />
      <stop
         offset="1"
         stop-color="#F15B2B"
         id="stop3796" />
    </linearGradient>
    <linearGradient
       id="paint11_linear_17931_893"
       x1="19.8305"
       y1="65.208"
       x2="9.5792503"
       y2="-1.40832"
       gradientUnits="userSpaceOnUse">
      <stop
         stop-color="#FAED1E"
         id="stop3799" />
      <stop
         offset="1"
         stop-color="#F15B2B"
         id="stop3801" />
    </linearGradient>
    <linearGradient
       id="paint12_linear_17931_893"
       x1="23.7353"
       y1="61.7393"
       x2="14.6289"
       y2="2.5624599"
       gradientUnits="userSpaceOnUse">
      <stop
         stop-color="#FAED1E"
         id="stop3804" />
      <stop
         offset="1"
         stop-color="#F15B2B"
         id="stop3806" />
    </linearGradient>
    <linearGradient
       id="paint13_linear_17931_893"
       x1="26.446501"
       y1="62.196701"
       x2="16.9911"
       y2="0.75185102"
       gradientUnits="userSpaceOnUse">
      <stop
         stop-color="#FAED1E"
         id="stop3809" />
      <stop
         offset="1"
         stop-color="#F15B2B"
         id="stop3811" />
    </linearGradient>
    <style
       id="style3958">.cls-1{fill:url(#linear-gradient);}</style>
    <linearGradient
       id="linear-gradient"
       x1="168.55"
       y1="13.4"
       x2="27.200001"
       y2="57"
       gradientUnits="userSpaceOnUse"
       gradientTransform="matrix(0.40133956,0,0,0.42856378,178.60872,177.90634)">
      <stop
         offset="0"
         stop-color="#fff100"
         id="stop3960" />
      <stop
         offset="1"
         stop-color="#f05a28"
         id="stop3962" />
    </linearGradient>
    <marker
       style="overflow:visible"
       id="TriangleOutL-7"
       refX="0"
       refY="0"
       orient="auto"
       inkscape:stockid="TriangleOutL"
       inkscape:isstock="true">
      <path
         transform="scale(0.8)"
         style="fill:context-stroke;fill-rule:evenodd;stroke:context-stroke;stroke-width:1pt"
         d="M 5.77,0 -2.88,5 V -5 Z"
         id="path26672-2" />
    </marker>
    <marker
       style="overflow:visible"
       id="TriangleInL-4"
       refX="0"
       refY="0"
       orient="auto"
       inkscape:stockid="TriangleInL"
       inkscape:isstock="true">
      <path
         transform="scale(-0.8)"
         style="fill:context-stroke;fill-rule:evenodd;stroke:context-stroke;stroke-width:1pt"
         d="M 5.77,0 -2.88,5 V -5 Z"
         id="path5305-6" />
    </marker>
  </defs>
  <sodipodi:namedview
     id="base"
     pagecolor="#ffffff"
     bordercolor="#666666"
     borderopacity="1.0"
     inkscape:pageopacity="1"
     inkscape:pageshadow="2"
     inkscape:zoom="0.70710678"
     inkscape:cx="226.27417"
     inkscape:cy="615.1829"
     inkscape:document-units="mm"
     inkscape:current-layer="layer1"
     inkscape:document-rotation="0"
     showgrid="true"
     units="px"
     inkscape:window-width="2560"
     inkscape:window-height="1494"
     inkscape:window-x="-11"
     inkscape:window-y="-11"
     inkscape:window-maximized="1"
     inkscape:pagecheckerboard="0"
     inkscape:object-nodes="false"
     height="950px">
    <inkscape:grid
       spacingy="8.4666668"
       spacingx="8.4666668"
       id="grid15"
       type="xygrid" />
  </sodipodi:namedview>
  <metadata
     id="metadata5">
    <rdf:RDF>
      <cc:Work
         rdf:about="">
        <dc:format>image/svg+xml</dc:format>
        <dc:type
           rdf:resource="http://purl.org/dc/dcmitype/StillImage" />
      </cc:Work>
    </rdf:RDF>
  </metadata>
  <g
     inkscape:label="Layer 1"
     inkscape:groupmode="layer"
     id="layer1">
    <rect
       transform="matrix(0.02778786,0,0,0.02541699,263.15763,89.695368)"
       x="412.70001"
       y="100.8"
       class="st37"
       width="1834.4175"
       height="1992.3"
       clip-path="url(#SVGID_6_)"
       id="rect43"
       style="fill:url(#SVGID_7_)" />
    <g
       id="g877"
       transform="matrix(0.4476124,0,0,0.44833028,177.85433,8.1867614)">
      <g
         id="Layer_2" />
      <path
         style="fill:#e6522c;fill-opacity:1"
         inkscape:connector-curvature="0"
         id="path4486"
         d="M 56.667,0.667 C 25.372,0.667 0,26.036 0,57.332 c 0,31.295 25.372,56.666 56.667,56.666 31.295,0 56.666,-25.371 56.666,-56.666 0,-31.296 -25.372,-56.665 -56.666,-56.665 z m 0,106.055 c -8.904,0 -16.123,-5.948 -16.123,-13.283 H 72.79 c 0,7.334 -7.219,13.283 -16.123,13.283 z M 83.297,89.04 H 30.034 V 79.382 H 83.298 V 89.04 Z M 83.106,74.411 H 30.186 C 30.01,74.208 29.83,74.008 29.66,73.802 24.208,67.182 22.924,63.726 21.677,60.204 c -0.021,-0.116 6.611,1.355 11.314,2.413 0,0 2.42,0.56 5.958,1.205 -3.397,-3.982 -5.414,-9.044 -5.414,-14.218 0,-11.359 8.712,-21.285 5.569,-29.308 3.059,0.249 6.331,6.456 6.552,16.161 3.252,-4.494 4.613,-12.701 4.613,-17.733 0,-5.21 3.433,-11.262 6.867,-11.469 -3.061,5.045 0.793,9.37 4.219,20.099 1.285,4.03 1.121,10.812 2.113,15.113 C 63.797,33.534 65.333,20.5 71,16 c -2.5,5.667 0.37,12.758 2.333,16.167 3.167,5.5 5.087,9.667 5.087,17.548 0,5.284 -1.951,10.259 -5.242,14.148 3.742,-0.702 6.326,-1.335 6.326,-1.335 l 12.152,-2.371 c 10e-4,-10e-4 -1.765,7.261 -8.55,14.254 z" />
    </g>
    <path
       style="fill:#6d429c;fill-opacity:1;stroke-width:0.447973"
       d="M 8.3944255,118.72772 V 93.423563 H 33.487325 58.58022 v 25.304157 25.30413 H 33.487325 8.3944255 Z"
       id="path7936" />
    <text
       xml:space="preserve"
       style="font-style:normal;font-weight:normal;font-size:10.5833px;line-height:1.25;font-family:sans-serif;fill:#ffffff;fill-opacity:1;stroke:none;stroke-width:0.264583"
       x="35.147682"
       y="114.97282"
       id="text14399"><tspan
         sodipodi:role="line"
         id="tspan14397"
         style="font-style:normal;font-variant:normal;font-weight:bold;font-stretch:normal;font-family:sans-serif;-inkscape-font-specification:'sans-serif Bold';text-align:center;text-anchor:middle;fill:#ffffff;stroke:none;stroke-width:0.264583"
         x="35.147682"
         y="114.97282">.NET </tspan><tspan
         sodipodi:role="line"
         style="font-style:normal;font-variant:normal;font-weight:bold;font-stretch:normal;font-family:sans-serif;-inkscape-font-specification:'sans-serif Bold';text-align:center;text-anchor:middle;fill:#ffffff;stroke:none;stroke-width:0.264583"
         x="35.147682"
         y="128.20193"
         id="tspan21259">App</tspan></text>
    <path
       style="fill:#000000;stroke:#666666;stroke-width:0.557442;stroke-linecap:butt;stroke-linejoin:miter;stroke-miterlimit:4;stroke-dasharray:none;stroke-opacity:1;marker-start:url(#TriangleInL)"
       d="m 91.984605,118.79792 -23.990646,0.13229"
       id="path26528"
       sodipodi:nodetypes="cc" />
    <path
       style="fill:#000000;stroke:#666666;stroke-width:0.581707;stroke-linecap:butt;stroke-linejoin:miter;stroke-miterlimit:4;stroke-dasharray:none;stroke-opacity:1;marker-end:url(#TriangleOutL)"
       d="M 264.02874,118.59908 H 240.64118"
       id="path26528-7" />
    <text
       xml:space="preserve"
       style="font-style:normal;font-weight:normal;font-size:10.5833px;line-height:1.25;font-family:sans-serif;fill:#000000;fill-opacity:1;stroke:none;stroke-width:0.264583"
       x="169.77441"
       y="76.22364"
       id="text40753"><tspan
         sodipodi:role="line"
         id="tspan40751"
         style="font-style:normal;font-variant:normal;font-weight:bold;font-stretch:normal;font-family:sans-serif;-inkscape-font-specification:'sans-serif Bold';stroke-width:0.264583"
         x="169.77441"
         y="76.22364">Prometheus</tspan></text>
    <text
       xml:space="preserve"
       style="font-style:normal;font-weight:normal;font-size:10.5833px;line-height:1.25;font-family:sans-serif;fill:#000000;fill-opacity:1;stroke:none;stroke-width:0.264583"
       x="276.41776"
       y="159.89105"
       id="text46133"><tspan
         sodipodi:role="line"
         id="tspan46131"
         style="font-style:normal;font-variant:normal;font-weight:bold;font-stretch:normal;font-family:sans-serif;-inkscape-font-specification:'sans-serif Bold';stroke-width:0.264583"
         x="276.41776"
         y="159.89105">Grafana</tspan></text>
    <g
       id="g564"
       transform="matrix(0.05108761,0,0,0.05148878,92.335558,92.996812)">
      <path
         fill="#f5a800"
         d="m 528.7,545.9 c -42,42 -42,110.1 0,152.1 42,42 110.1,42 152.1,0 42,-42 42,-110.1 0,-152.1 -42,-42 -110.1,-42 -152.1,0 z m 113.7,113.8 c -20.8,20.8 -54.5,20.8 -75.3,0 -20.8,-20.8 -20.8,-54.5 0,-75.3 20.8,-20.8 54.5,-20.8 75.3,0 20.8,20.7 20.8,54.5 0,75.3 z M 679,16.7 613.1,82.6 c -12.9,12.9 -12.9,34.1 0,47 l 257.3,257.3 c 12.9,12.9 34.1,12.9 47,0 L 983.3,321 c 12.9,-12.9 12.9,-34.1 0,-47 L 725.9,16.7 C 713,3.8 691.9,3.8 679,16.7 Z M 217.3,858.8 c 11.7,-11.7 11.7,-30.8 0,-42.5 l -33.5,-33.5 c -11.7,-11.7 -30.8,-11.7 -42.5,0 L 72.1,852 72,852.1 53,833.1 c -10.5,-10.5 -27.6,-10.5 -38,0 -10.5,10.5 -10.5,27.6 0,38 l 114,114 c 10.5,10.5 27.6,10.5 38,0 10.4,-10.5 10.5,-27.6 0,-38 l -19,-19 0.1,-0.1 z"
         id="path551" />
      <path
         fill="#425cc7"
         d="M 565.9,205.9 419.5,352.3 c -13,13 -13,34.4 0,47.4 l 90.4,90.4 c 63.9,-46 153.5,-40.3 211,17.2 l 73.2,-73.2 c 13,-13 13,-34.4 0,-47.4 L 613.3,205.9 c -13,-13.1 -34.4,-13.1 -47.4,0 z m -94,322.3 -53.4,-53.4 c -12.5,-12.5 -33,-12.5 -45.5,0 L 184.7,663.2 c -12.5,12.5 -12.5,33 0,45.5 l 106.7,106.7 c 12.5,12.5 33,12.5 45.5,0 L 458,694.1 C 432.4,641.2 437,577.3 471.9,528.2 Z"
         id="path553" />
    </g>
    <text
       xml:space="preserve"
       style="font-style:normal;font-weight:normal;font-size:10.5833px;line-height:1.25;font-family:sans-serif;fill:#000000;fill-opacity:1;stroke:none;stroke-width:0.264583"
       x="190.80878"
       y="160.09668"
       id="text40753-4"><tspan
         sodipodi:role="line"
         style="font-style:normal;font-variant:normal;font-weight:bold;font-stretch:normal;font-family:sans-serif;-inkscape-font-specification:'sans-serif Bold';stroke-width:0.264583"
         x="190.80878"
         y="160.09668"
         id="tspan1449">Loki</tspan></text>
    <text
       xml:space="preserve"
       style="font-style:normal;font-weight:normal;font-size:10.5833px;line-height:1.25;font-family:sans-serif;fill:#000000;fill-opacity:1;stroke:none;stroke-width:0.264583"
       x="183.13588"
       y="235.89972"
       id="text40753-4-5"><tspan
         sodipodi:role="line"
         style="font-style:normal;font-variant:normal;font-weight:bold;font-stretch:normal;font-family:sans-serif;-inkscape-font-specification:'sans-serif Bold';stroke-width:0.264583"
         x="183.13588"
         y="235.89972"
         id="tspan1449-7">Tempo</tspan><tspan
         sodipodi:role="line"
         style="font-style:normal;font-variant:normal;font-weight:bold;font-stretch:normal;font-family:sans-serif;-inkscape-font-specification:'sans-serif Bold';stroke-width:0.264583"
         x="183.13588"
         y="249.12885"
         id="tspan2842" /></text>
    <g
       style="fill:none"
       id="g3876"
       transform="matrix(0.99769816,0,0,0.90237552,178.19687,93.32001)">
      <path
         d="m 12.0478,54.9248 -0.664,-4.4585 -4.45851,0.6641 0.75889,4.4585 z"
         fill="url(#paint0_linear_17931_893)"
         id="path3716"
         style="fill:url(#paint0_linear_17931_893)" />
      <path
         d="m 46.957,42.4032 -0.7589,-4.3636 -19.4466,3.0355 0.5691,4.3637 z"
         fill="url(#paint1_linear_17931_893)"
         id="path3718"
         style="fill:url(#paint1_linear_17931_893)" />
      <path
         d="m 20.395,46.5772 4.4585,-0.7589 -0.664,-4.3637 -4.4585,0.664 z"
         fill="url(#paint2_linear_17931_893)"
         id="path3720"
         style="fill:url(#paint2_linear_17931_893)" />
      <path
         d="m 19.0674,53.7865 -0.7589,-4.3636 -4.3637,0.664 0.5692,4.4585 z"
         fill="url(#paint3_linear_17931_893)"
         id="path3722"
         style="fill:url(#paint3_linear_17931_893)" />
      <path
         d="M 5.88135,44.2055 6.54539,48.6641 11.0039,48 10.3399,43.5415 Z"
         fill="url(#paint4_linear_17931_893)"
         id="path3724"
         style="fill:url(#paint4_linear_17931_893)" />
      <path
         d="m 27.6997,47.9051 0.7589,4.5534 19.5415,-3.0356 -0.664,-4.4585 z"
         fill="url(#paint5_linear_17931_893)"
         id="path3726"
         style="fill:url(#paint5_linear_17931_893)" />
      <path
         d="m 21.5333,53.407 4.3636,-0.5692 -0.664,-4.5534 -4.4585,0.7589 z"
         fill="url(#paint6_linear_17931_893)"
         id="path3728"
         style="fill:url(#paint6_linear_17931_893)" />
      <path
         d="m 12.8062,43.1621 0.7588,4.4584 4.3637,-0.6639 -0.6641,-4.4586 z"
         fill="url(#paint7_linear_17931_893)"
         id="path3730"
         style="fill:url(#paint7_linear_17931_893)" />
      <path
         d="M 7.39921,41.4546 1.99207,5.97632 0,6.26089 5.50197,41.7392 Z"
         fill="url(#paint8_linear_17931_893)"
         id="path3732"
         style="fill:url(#paint8_linear_17931_893)" />
      <path
         d="M 9.96032,41.0751 4.07888,2.94067 2.18164,3.32014 8.06308,41.3597 Z"
         fill="url(#paint9_linear_17931_893)"
         id="path3734"
         style="fill:url(#paint9_linear_17931_893)" />
      <path
         d="M 14.3245,40.4111 8.15847,0 6.26123,0.379412 12.4272,40.6008 Z"
         fill="url(#paint10_linear_17931_893)"
         id="path3736"
         style="fill:url(#paint10_linear_17931_893)" />
      <path
         d="M 16.8852,40.0315 11.1935,3.2251 9.39111,3.50967 15.0828,40.2212 Z"
         fill="url(#paint11_linear_17931_893)"
         id="path3738"
         style="fill:url(#paint11_linear_17931_893)" />
      <path
         d="M 21.2491,39.2728 16.2215,6.64038 14.3242,6.92495 19.3519,39.6523 Z"
         fill="url(#paint12_linear_17931_893)"
         id="path3740"
         style="fill:url(#paint12_linear_17931_893)" />
      <path
         d="M 23.8104,38.8935 18.593,5.02783 16.6958,5.31241 22.0081,39.1781 Z"
         fill="url(#paint13_linear_17931_893)"
         id="path3742"
         style="fill:url(#paint13_linear_17931_893)" />
    </g>
    <path
       class="cls-1"
       d="m 180.47897,188.62042 h -0.91907 a 0.9511786,1.0157001 0 0 0 0,2.03139 h 0.91907 a 0.9511786,1.0157001 0 1 0 0,-2.03139 z m 17.5867,14.81545 h -0.91906 a 0.9511748,1.0156961 0 1 0 0,2.03139 h 0.91906 a 0.9511748,1.0156961 0 1 0 0,-2.03139 z m -0.77057,-9.67269 a 0.9511748,1.0156961 0 0 0 -0.95117,-1.01569 h -3.17861 a 0.95117496,1.0156963 0 0 0 0,2.03139 h 3.17861 a 0.9511748,1.0156961 0 0 0 0.95117,-1.0157 z m 30.1687,-6.3856 -0.96724,-5.80275 a 3.965235,4.23421 0 0 0 -4.11372,-3.6685 h -37.25636 a 2.5204125,2.6913804 0 0 0 -2.54448,3.29994 l 1.0194,6.17131 a 1.3565278,1.4485455 0 0 0 0.0321,0.14579 v 0 c 0.12043,0.75425 -0.23681,1.05855 -0.55787,1.16996 v 0 a 0.9511748,1.0156961 0 0 0 0.31706,1.97139 h 41.52661 a 2.5204125,2.6913804 0 0 0 2.54448,-3.28707 z m -12.67431,23.27959 c -0.40133,-2.24997 -1.60534,-3.08565 -2.96589,-3.08565 h -9.84086 a 0.95920161,1.0242674 0 0 0 -0.95117,1.02855 0.9511748,1.0156961 0 0 0 0.85485,1.01998 v 0 c 0.31305,0.06 0.65018,0.49713 0.86289,1.5771 l 1.01137,5.9999 a 3.8488466,4.1099266 0 0 0 3.68831,3.23138 l 5.87159,-0.03 a 2.5204125,2.6913804 0 0 0 2.58464,-3.26137 z m -13.01142,-5.11706 h 10.67964 a 0.91104085,0.97283976 0 0 0 0.23679,-0.0386 c 0.9873,-0.22284 1.03546,-1.07998 0.90703,-1.93282 l -1.36055,-7.97558 c -0.37324,-2.07424 -1.501,-2.89281 -2.98195,-2.89281 h -9.78065 a 0.9511748,1.0156961 0 0 0 -0.1124,2.02283 v 0 c 0.3251,0.0643 0.68229,0.53142 0.89098,1.71426 l 1.03145,6.10275 v 0 a 0.770572,0.82284244 0 0 1 -0.60603,1.02426 v 0 a 0.94716141,1.0114105 0 0 0 0.31706,1.96712 h 0.76255 z"
       id="path3967"
       style="fill:url(#linear-gradient);stroke-width:0.414727" />
    <path
       style="fill:none;stroke:#666666;stroke-width:0.540239;stroke-linecap:butt;stroke-linejoin:miter;stroke-miterlimit:4;stroke-dasharray:none;stroke-opacity:1;marker-start:url(#TriangleInL)"
       d="M 135.44612,81.693389 C 135.42324,57.818087 155.09934,40.57556 165.37865,35.473205"
       id="path5675"
       sodipodi:nodetypes="cc" />
    <path
       style="fill:#000000;stroke:#666666;stroke-width:0.557442;stroke-linecap:butt;stroke-linejoin:miter;stroke-miterlimit:4;stroke-dasharray:none;stroke-opacity:1;marker-start:url(#TriangleInL-4)"
       d="m 168.32402,119.03269 -23.99065,0.13229"
       id="path26528-3"
       sodipodi:nodetypes="cc" />
    <path
       style="fill:none;stroke:#666666;stroke-width:0.382454;stroke-linecap:butt;stroke-linejoin:miter;stroke-miterlimit:4;stroke-dasharray:none;stroke-opacity:1;marker-end:url(#TriangleOutL)"
       d="m 135.05589,177.83226 c 0.41078,16.90108 17.5312,27.14509 33.50557,27.28099"
       id="path6093"
       sodipodi:nodetypes="cc" />
    <path
       style="fill:none;stroke:#666666;stroke-width:0.542018;stroke-linecap:butt;stroke-linejoin:miter;stroke-miterlimit:4;stroke-dasharray:none;stroke-opacity:1;marker-end:url(#TriangleOutL)"
       d="M 287.81411,84.758391 C 279.4,50.800001 270.93334,42.333334 243.25315,33.655108"
       id="path7512"
       sodipodi:nodetypes="cc" />
    <path
       style="fill:none;stroke:#666666;stroke-width:0.577;stroke-linecap:butt;stroke-linejoin:miter;stroke-miterlimit:4;stroke-dasharray:none;stroke-opacity:1;marker-end:url(#TriangleOutL)"
       d="M 287.86666,169.33333 C 281.73324,188.93188 269.24062,203.63754 237.06667,203.2"
       id="path8740"
       sodipodi:nodetypes="cc" />
    <text
       xml:space="preserve"
       style="font-style:normal;font-weight:normal;font-size:10.5833px;line-height:1.25;font-family:sans-serif;fill:#000000;fill-opacity:1;stroke:none;stroke-width:0.264583"
       x="91.78363"
       y="160.5295"
       id="text40753-4-6"><tspan
         sodipodi:role="line"
         style="font-style:normal;font-variant:normal;font-weight:bold;font-stretch:normal;font-family:sans-serif;-inkscape-font-specification:'sans-serif Bold';stroke-width:0.264583"
         x="91.78363"
         y="160.5295"
         id="tspan1449-0">OTel</tspan><tspan
         sodipodi:role="line"
         style="font-style:normal;font-variant:normal;font-weight:bold;font-stretch:normal;font-family:sans-serif;-inkscape-font-specification:'sans-serif Bold';stroke-width:0.264583"
         x="91.78363"
         y="173.75862"
         id="tspan9309">Collector</tspan></text>
  </g>
  <style
     type="text/css"
     id="style2">
	.st0{fill:#C59A6E;}
	.st1{fill:#3CB44B;}
	.st2{fill:#67308F;}
	.st3{fill:#D1D1D1;}
	.st4{fill:#EF5B28;}
	.st5{stroke:#000000;stroke-width:16;stroke-miterlimit:10;}
	.st6{fill:url(#Triangle-3_1_);}
	.st7{fill:#333333;}
	.st8{fill:#CF2129;}
	.st9{fill:#CC3832;}
	.st10{fill:#BA443D;}
	.st11{fill:#BAC556;}
	.st12{fill:#F8DF4B;}
	.st13{fill:#F5CF47;}
	.st14{fill:#A9B75D;}
	.st15{fill:#DDBE5B;}
	.st16{fill:#6FBECB;}
	.st17{fill:#79C0BF;}
	.st18{fill:#77C3D2;}
	.st19{fill:#5CB8BB;}
	.st20{fill:#529FB5;}
	.st21{fill:#BA3D36;}
	.st22{fill:#9D3634;}
	.st23{fill:#D33E35;}
	.st24{fill:#869B63;}
	.st25{fill:#BEC54F;}
	.st26{fill:#9EAD59;}
	.st27{fill:none;}
	.st28{fill:#43AE2A;}
	.st29{fill:#009DDD;}
	.st30{fill:#00A297;}
	.st31{fill:#0072CC;}
	.st32{fill:#82BB00;}
	.st33{fill:#10069D;}
	.st34{fill:#333F48;}
	.st35{clip-path:url(#SVGID_2_);}
	.st36{clip-path:url(#SVGID_4_);fill:#414042;}
	.st37{clip-path:url(#SVGID_6_);fill:url(#SVGID_7_);}
</style>
  <style
     id="style549">svg {enable-background:new 0 0 1000 1000}</style>
</svg>
